<mxfile host="65bd71144e">
    <diagram id="x1LKRyLEt5oqfdEL86XC" name="Page-1">
        <mxGraphModel dx="2194" dy="2118" grid="1" gridSize="10" guides="1" tooltips="1" connect="1" arrows="1" fold="1" page="1" pageScale="1" pageWidth="850" pageHeight="1100" background="none" math="0" shadow="0">
            <root>
                <mxCell id="0"/>
                <mxCell id="1" parent="0"/>
                <mxCell id="4" value="Scrape Article" style="rounded=0;whiteSpace=wrap;html=1;" parent="1" vertex="1">
                    <mxGeometry x="500" y="640" width="150" height="40" as="geometry"/>
                </mxCell>
                <mxCell id="5" value="Scrape Archive" style="rounded=0;whiteSpace=wrap;html=1;" parent="1" vertex="1">
                    <mxGeometry x="295" y="360" width="150" height="40" as="geometry"/>
                </mxCell>
                <mxCell id="6" value="Scrape Teaser" style="rounded=0;whiteSpace=wrap;html=1;" parent="1" vertex="1">
                    <mxGeometry x="500" y="520" width="150" height="40" as="geometry"/>
                </mxCell>
                <mxCell id="7" value="html" style="rounded=0;whiteSpace=wrap;html=1;" parent="1" vertex="1">
                    <mxGeometry x="287.5" y="300" width="150" height="40" as="geometry"/>
                </mxCell>
                <mxCell id="11" value="&lt;div style=&quot;text-align: left;&quot;&gt;&lt;span style=&quot;background-color: initial;&quot;&gt;https://www.tagesschau.de/archiv?datum=2023-09-05&amp;amp;filter=wirtschaft&lt;/span&gt;&lt;/div&gt;" style="rounded=0;whiteSpace=wrap;html=1;" parent="1" vertex="1">
                    <mxGeometry x="80" y="160" width="460" height="50" as="geometry"/>
                </mxCell>
                <mxCell id="12" value="&lt;span style=&quot;text-align: left;&quot;&gt;https://www.tagesschau.de&lt;/span&gt;&lt;span style=&quot;background-color: initial; text-align: left;&quot;&gt;&amp;nbsp;&lt;/span&gt;&lt;span style=&quot;text-align: left;&quot;&gt;&lt;br&gt;&lt;/span&gt;&lt;span style=&quot;color: rgba(0, 0, 0, 0); font-family: monospace; font-size: 0px; text-align: start;&quot;&gt;%3CmxGraphModel%3E%3Croot%3E%3CmxCell%20id%3D%220%22%2F%3E%3CmxCell%20id%3D%221%22%20parent%3D%220%22%2F%3E%3CmxCell%20id%3D%222%22%20value%3D%22%26lt%3Bdiv%20style%3D%26quot%3Btext-align%3A%20left%3B%26quot%3B%26gt%3B%26lt%3Bspan%20style%3D%26quot%3Bbackground-color%3A%20initial%3B%26quot%3B%26gt%3Bhttps%3A%2F%2Fwww.tagesschau.de%2Farchiv%3Fdatum%3D2023-09-05%26amp%3Bamp%3Bfilter%3Dwirtschaft%26lt%3B%2Fspan%26gt%3B%26lt%3B%2Fdiv%26gt%3B%22%20style%3D%22rounded%3D0%3BwhiteSpace%3Dwrap%3Bhtml%3D1%3B%22%20vertex%3D%221%22%20parent%3D%221%22%3E%3CmxGeometry%20x%3D%2210%22%20y%3D%22210%22%20width%3D%22460%22%20height%3D%2250%22%20as%3D%22geometry%22%2F%3E%3C%2FmxCell%3E%3C%2Froot%3E%3C%2FmxGraphModel%3&lt;/span&gt;" style="rounded=0;whiteSpace=wrap;html=1;" parent="1" vertex="1">
                    <mxGeometry x="80" y="80" width="200" height="40" as="geometry"/>
                </mxCell>
                <mxCell id="13" value="&lt;span style=&quot;text-align: left;&quot;&gt;archiv?datum=2023-09-05&amp;amp;filter=wirtschaft&lt;/span&gt;" style="rounded=0;whiteSpace=wrap;html=1;" parent="1" vertex="1">
                    <mxGeometry x="360" y="80" width="260" height="40" as="geometry"/>
                </mxCell>
                <mxCell id="15" value="multi page?" style="rounded=0;whiteSpace=wrap;html=1;" parent="1" vertex="1">
                    <mxGeometry x="280" y="240" width="165" height="40" as="geometry"/>
                </mxCell>
                <mxCell id="16" value="What news categories are available?" style="rounded=0;whiteSpace=wrap;html=1;" parent="1" vertex="1">
                    <mxGeometry x="760" y="-340" width="120" height="60" as="geometry"/>
                </mxCell>
                <mxCell id="17" value="Select date range for scraping" style="rounded=0;whiteSpace=wrap;html=1;" parent="1" vertex="1">
                    <mxGeometry x="80" y="-60" width="120" height="60" as="geometry"/>
                </mxCell>
                <mxCell id="18" value="API request" style="rounded=0;whiteSpace=wrap;html=1;" parent="1" vertex="1">
                    <mxGeometry x="760" y="-240" width="120" height="60" as="geometry"/>
                </mxCell>
                <mxCell id="19" value="Known from cache" style="rounded=0;whiteSpace=wrap;html=1;" parent="1" vertex="1">
                    <mxGeometry x="910" y="-240" width="120" height="60" as="geometry"/>
                </mxCell>
                <mxCell id="20" value="Evaluate news categories" style="rounded=0;whiteSpace=wrap;html=1;" parent="1" vertex="1">
                    <mxGeometry x="870" y="-90" width="120" height="60" as="geometry"/>
                </mxCell>
                <mxCell id="21" value="Update available news categories" style="rounded=0;whiteSpace=wrap;html=1;" parent="1" vertex="1">
                    <mxGeometry x="760" y="-170" width="120" height="60" as="geometry"/>
                </mxCell>
                <mxCell id="22" value="Select news category" style="rounded=0;whiteSpace=wrap;html=1;" vertex="1" parent="1">
                    <mxGeometry x="270" y="-60" width="120" height="60" as="geometry"/>
                </mxCell>
                <mxCell id="23" value="request_params = {datum: &quot;2023-09-05&quot;, filter: &quot;wirtschaft&quot;}" style="rounded=0;whiteSpace=wrap;html=1;" vertex="1" parent="1">
                    <mxGeometry x="500" y="-10" width="120" height="60" as="geometry"/>
                </mxCell>
            </root>
        </mxGraphModel>
    </diagram>
</mxfile>